<svg width="1136" height="261" viewBox="0 0 1136 261" fill="none" xmlns="http://www.w3.org/2000/svg">
<path d="M160.85 142.396C178.068 139.411 192.909 141.208 198.686 146.984C200.841 149.167 201.698 151.848 201.173 154.722C199.238 165.418 178.842 177.081 154.715 181.254C149.215 182.221 143.936 182.663 139.127 182.663C128.929 182.663 120.804 180.591 116.88 176.638C114.724 174.483 113.867 171.802 114.392 168.9C116.327 158.232 136.751 146.569 160.85 142.368V142.396Z" fill="black"/>
<path d="M107.179 168.209C88.5238 183.382 99.855 192.972 119.422 193.911C134.705 194.741 150.044 192.64 165.051 189.711C175.028 187.665 185.06 185.261 194.374 181.668C216.429 172.962 264.269 147.785 252.136 118.711C248.432 110.281 240.97 104.035 232.265 100.968C225.438 98.2316 218.087 96.5181 210.818 95.4955C163.476 89.3048 105.41 103.068 61.771 121.751C42.8396 129.876 24.3503 139.273 6.99414 150.411C15.1195 143.971 23.7146 138.167 32.5585 132.695C79.2653 104.091 133.213 86.3752 188.239 85.021C201.477 85.1039 215.157 86.0436 227.898 89.7746C230.302 90.2444 233.343 91.571 235.664 92.3725C238.207 93.2569 240.888 94.4176 243.347 95.91C258.658 104.422 268.304 124.293 260.427 141.207C250.008 164.423 219.717 180.093 196.917 188.384C186.884 191.811 176.576 193.994 166.157 195.597C150.624 197.836 134.816 199.273 119.118 197.394C98.6943 195.376 85.539 182.691 107.207 168.126L107.179 168.209Z" fill="url(#paint0_linear_1128_11217)"/>
<path d="M208.828 155.358C229.916 132.972 188.708 132.253 174.779 132.419C163.034 132.613 151.509 134.823 140.095 137.504C110.91 145.049 79.2101 156.38 57.7083 178.103C55.8014 180.01 54.005 182.249 52.3467 184.349C48.2564 190.733 44.7189 198.61 46.2942 206.1C48.7815 216.602 58.9244 222.129 68.929 225.805C104.664 237.44 148.911 230.365 185.558 224.064C170.357 229.011 154.715 232.604 138.934 235.202C123.015 237.717 106.764 239.209 90.6242 237.993C66.5799 236.556 30.1264 225.059 37.9201 194.078C40.1864 185.455 44.8294 177.937 50.9649 171.664C71.444 151.102 99.1641 140.296 126.691 133.027C146.341 128.218 166.765 125.233 186.94 128.08C202.334 129.794 229.639 137.477 208.828 155.33V155.358Z" fill="black"/>
<path d="M110.799 215.082C164.636 215.082 273.776 184.073 301.302 135.1C309.925 120.314 311.279 100.083 296.742 88.6692C285.881 79.0515 272.449 74.0215 258.022 70.5669C276.042 71.8935 300.971 81.4283 310.644 97.8171C321.063 117.578 310.45 140.931 296.549 155.966C273.444 180.867 240.998 194.575 209.132 204.303C177.432 213.562 143.77 219.642 110.799 215.137V215.082Z" fill="black"/>
<path d="M166.958 114.372C136.447 118.711 106.764 128.467 78.9062 141.484C60.5274 149.913 43.3924 161.245 29.3251 175.754C17.3582 188.329 2.71043 208.145 12.6045 225.335C22.4986 240.729 46.4878 246.118 63.7886 249.076C123.651 258.279 187.603 242.885 244.149 223.373C253.877 219.946 263.55 216.353 273.057 212.291C254.789 222.102 235.636 230.144 216.18 237.219C167.207 254.382 114.337 265.796 62.3514 258.03C41.9276 254.686 16.6395 248.744 4.81083 229.978C-7.73644 208.864 8.5419 184.653 23.5212 170.033C38.6111 155.137 56.907 143.944 76.3912 135.957C105.134 124.1 135.756 115.837 166.93 114.4L166.958 114.372Z" fill="url(#paint1_linear_1128_11217)"/>
<path d="M138.768 183.078C128.377 183.078 120.113 180.95 116.134 176.943C113.95 174.732 113.066 172.023 113.591 169.038C115.553 158.149 136.364 146.293 160.933 142.009C178.483 138.942 193.6 140.821 199.487 146.708C201.671 148.919 202.555 151.627 202.03 154.612C200.068 165.501 179.257 177.357 154.687 181.641C149.049 182.608 143.715 183.106 138.796 183.106L138.768 183.078ZM176.825 143.198C172.071 143.198 166.82 143.668 161.348 144.607C138.575 148.559 117.875 159.973 116.161 169.508C115.774 171.609 116.382 173.488 117.985 175.091C123.181 180.314 137.718 181.917 154.218 179.071C176.991 175.119 197.691 163.704 199.432 154.17C199.819 152.069 199.211 150.19 197.608 148.587C194.153 145.105 186.47 143.198 176.825 143.198Z" fill="url(#paint2_linear_1128_11217)"/>
<path d="M457.121 139.77H432.828L409.502 163.649V105.113L388.967 114.731V223.677H409.502V186.726L417.765 178.518L441.34 223.677H463.671L432.828 163.898L457.121 139.77Z" fill="black"/>
<path d="M562.777 125.869C558.853 120.121 553.713 115.478 547.328 111.995C540.944 108.513 533.15 106.772 523.975 106.772C514.799 106.772 506.978 108.513 500.566 111.995C494.154 115.478 489.014 120.093 485.089 125.869C481.165 131.645 478.318 138.03 476.522 145.049C474.698 152.042 473.813 159.117 473.813 166.22C473.813 173.322 474.698 180.397 476.522 187.39C478.346 194.382 481.165 200.766 485.089 206.57C489.014 212.346 494.154 216.961 500.566 220.444C506.978 223.898 514.772 225.667 523.975 225.667C533.178 225.667 540.972 223.926 547.328 220.444C553.713 216.989 558.853 212.346 562.777 206.57C566.702 200.821 569.549 194.409 571.317 187.39C573.114 180.37 573.998 173.322 573.998 166.22C573.998 159.117 573.114 152.042 571.317 145.049C569.521 138.03 566.702 131.673 562.777 125.869ZM497.388 152.871C498.328 148.311 499.903 144.055 502.059 140.158C504.214 136.233 507.089 133.083 510.681 130.65C514.274 128.246 518.724 127.03 524.003 127.03C529.281 127.03 533.676 128.191 537.268 130.512C538.346 131.203 539.314 132.005 540.281 132.806L499.24 186.367C498.466 184.322 497.83 182.139 497.36 179.9C496.421 175.312 495.923 170.724 495.923 166.192C495.923 161.659 496.421 157.431 497.36 152.843L497.388 152.871ZM550.534 179.458C549.567 184.018 547.964 188.246 545.781 192.143C543.597 196.04 540.695 199.163 537.13 201.595C533.537 204 529.171 205.188 524.03 205.188C518.89 205.188 514.44 204.055 510.847 201.761C509.521 200.904 508.305 199.909 507.172 198.831L548.406 145.022C549.318 147.343 550.064 149.775 550.59 152.373C551.529 156.989 552.027 161.604 552.027 166.192C552.027 170.476 551.529 174.87 550.534 179.458Z" fill="black"/>
<path d="M684.215 157.431C685.901 152.981 686.73 148.615 686.73 144.276C686.73 138.03 685.542 132.198 683.165 126.809C680.788 121.392 676.808 117.026 671.253 113.709C665.698 110.42 658.126 108.734 648.563 108.734H596.274V223.677H617.527V180.176H640.853L662.603 223.677H686.482L663.819 177.275C668.96 175.561 673.243 172.936 676.615 169.398C679.987 165.86 682.529 161.853 684.215 157.403V157.431ZM663.322 151.987C662.354 154.391 660.668 156.353 658.347 157.846C656.025 159.366 652.847 160.084 648.84 160.084H617.499V128.744H648.84C653.013 128.744 656.219 129.518 658.513 131.12C660.807 132.723 662.437 134.713 663.349 137.118C664.261 139.522 664.759 141.927 664.759 144.331C664.759 147.012 664.261 149.554 663.266 151.959L663.322 151.987Z" fill="black"/>
<path d="M790.701 126.753C786.335 121.253 780.669 116.886 773.649 113.597C766.657 110.364 758.145 108.706 748.195 108.706H709.448V223.649H747.532C758.034 223.649 766.878 221.907 774.009 218.425C781.139 214.97 786.86 210.383 791.143 204.717C795.427 199.051 798.495 192.833 800.374 186.145C802.281 179.401 803.221 172.769 803.221 166.218C803.221 159.06 802.226 152.041 800.209 145.242C798.219 138.416 795.04 132.252 790.674 126.78L790.701 126.753ZM779.508 179.291C778.403 183.713 776.606 187.72 774.174 191.368C771.742 195.016 768.509 197.946 764.529 200.157C760.521 202.368 755.602 203.473 749.771 203.473H730.729V128.77H751.595C756.79 128.77 761.24 129.82 764.971 131.948C768.702 134.076 771.77 136.951 774.174 140.571C776.579 144.192 778.375 148.199 779.508 152.649C780.669 157.098 781.249 161.603 781.249 166.191C781.249 170.53 780.669 174.869 779.563 179.291H779.508Z" fill="black"/>
<path d="M846.694 174.428H880.107V154.198H846.694V128.937H903.102V108.734H825.441V223.677H906.556V203.309H846.694V174.428Z" fill="black"/>
<path d="M996.792 176.39C996.792 177.413 996.847 178.822 996.93 180.536C997.013 182.277 997.151 183.714 997.317 184.93C996.653 183.548 995.852 182.028 994.885 180.398C993.945 178.712 993.143 177.385 992.535 176.418L947.238 108.762H927.395V223.705H948.482V155.579C948.482 154.419 948.482 153.064 948.399 151.461C948.344 149.858 948.233 148.394 948.067 147.012C948.731 148.394 949.532 149.914 950.472 151.6C951.411 153.313 952.213 154.612 952.821 155.552L999.058 223.677H1018.02V108.734H996.847V176.39H996.792Z" fill="black"/>
<path d="M1037.42 108.734V129.186H1070V223.677H1091.26V129.186H1124.03V108.734H1037.42Z" fill="black"/>
<path d="M1110.21 0.562012H1051.21C1036.97 0.562012 1025.42 12.1066 1025.42 26.3475V48.9823C1025.42 63.2232 1036.97 74.7678 1051.21 74.7678H1110.21C1124.46 74.7678 1136 63.2232 1136 48.9823V26.3475C1136 12.1066 1124.46 0.562012 1110.21 0.562012Z" fill="url(#paint3_linear_1128_11217)"/>
<path d="M1046.59 60.3412L1064.67 12.8882H1073.01L1091.14 60.3412H1081.69L1077.93 50.3089H1059.8L1056.1 60.3412H1046.59ZM1062.62 42.2665H1075L1070.25 29.5534C1070.09 29.1665 1069.92 28.7519 1069.75 28.2544C1069.59 27.757 1069.39 27.2872 1069.26 26.8173C1069.09 26.3198 1068.95 25.9053 1068.84 25.546C1068.73 25.9053 1068.59 26.3198 1068.43 26.8173C1068.26 27.3148 1068.1 27.7846 1067.93 28.2544C1067.76 28.7243 1067.57 29.1665 1067.43 29.5534L1062.65 42.2665H1062.62Z" fill="black"/>
<path d="M1098.11 60.3415V12.8608H1106.9V60.3139H1098.11V60.3415Z" fill="black"/>
<defs>
<linearGradient id="paint0_linear_1128_11217" x1="6.99414" y1="141.705" x2="263.218" y2="141.705" gradientUnits="userSpaceOnUse">
<stop stop-color="#F8E201"/>
<stop offset="1" stop-color="#FD4FFD"/>
</linearGradient>
<linearGradient id="paint1_linear_1128_11217" x1="0.361257" y1="187.445" x2="273.085" y2="187.445" gradientUnits="userSpaceOnUse">
<stop stop-color="#F8E201"/>
<stop offset="1" stop-color="#FD4FFD"/>
</linearGradient>
<linearGradient id="paint2_linear_1128_11217" x1="113.425" y1="161.825" x2="202.14" y2="161.825" gradientUnits="userSpaceOnUse">
<stop stop-color="#F8E201"/>
<stop offset="1" stop-color="#FD4FFD"/>
</linearGradient>
<linearGradient id="paint3_linear_1128_11217" x1="1025.42" y1="37.6787" x2="1136" y2="37.6787" gradientUnits="userSpaceOnUse">
<stop stop-color="#F8E201"/>
<stop offset="1" stop-color="#FD4FFD"/>
</linearGradient>
</defs>
</svg>
